<svg viewBox="0 0 250 250" xmlns="http://www.w3.org/2000/svg" xmlns:xlink="http://www.w3.org/1999/xlink"><defs><linearGradient id="gradient" x1="0%" y1="0%" x2="0%" y2="100%"><stop offset="0%" style="stop-color: rgb(21, 46, 241);"></stop><stop offset="100%" style="stop-color: rgb(178, 24, 40);"></stop></linearGradient></defs><path d="M186.5,140Q178,155,165,163Q152,171,138.5,196.5Q125,222,98.5,219Q72,216,78,182.5Q84,149,78,137Q72,125,62.5,104.5Q53,84,75.5,81Q98,78,111.5,62.5Q125,47,154.5,35Q184,23,174,62.5Q164,102,179.5,113.5Q195,125,186.5,140Z" fill="url(#gradient)" stroke-width="2px" stroke="#000000"></path><g><ellipse cx="110" cy="120" rx="9" ry="14" stroke-width="1" stroke="#000000" fill="#FFFFFF"></ellipse><ellipse cx="140" cy="120" rx="9" ry="14" stroke-width="1" stroke="#000000" fill="#FFFFFF"></ellipse><circle cx="112" cy="118" r="4" fill="#000000"></circle><circle cx="142" cy="118" r="4" fill="#000000"></circle></g><g><path d="M 113.50933335321534 139.6418141452981 A 15 15 0 0 0 136.49066664678466 139.6418141452981" stroke="#000000" stroke-width="2" stroke-linecap="round" fill="#ffffff"></path><line x1="113" y1="139" x2="137" y2="139" stroke="#000000" stroke-width="2" stroke-linecap="round"></line></g></svg>